<svg version="1.1" viewBox="0.0 0.0 978.0971128608924 563.6482939632546" fill="none" stroke="none" stroke-linecap="square" stroke-miterlimit="10" xmlns:xlink="http://www.w3.org/1999/xlink" xmlns="http://www.w3.org/2000/svg"><clipPath id="p.0"><path d="m0 0l978.0971 0l0 563.6483l-978.0971 0l0 -563.6483z" clip-rule="nonzero"/></clipPath><g clip-path="url(#p.0)"><path fill="#000000" fill-opacity="0.0" d="m0 0l978.0971 0l0 563.6483l-978.0971 0z" fill-rule="evenodd"/><path fill="#000000" fill-opacity="0.0" d="m7.9973755 10.286089l960.0 0l0 215.9685l-960.0 0z" fill-rule="evenodd"/><path stroke="#000000" stroke-width="3.0" stroke-linejoin="round" stroke-linecap="butt" stroke-dasharray="24.0,9.0" d="m7.9973755 10.286089l960.0 0l0 215.9685l-960.0 0z" fill-rule="evenodd"/><path fill="#000000" d="m393.04425 37.599842q4.984375 -5.890627 5.90625 -14.703127l3.796875 0.984375q1.40625 1.421875 -0.140625 1.859375q-0.5625 3.28125 -1.3125 5.40625q2.390625 0.21875 0.015625 1.7968769l0 19.8125l-3.8125 0l0.1875 -14.453125q0.140625 0.15625 -1.90625 2.5625l-2.734375 -3.265625zm24.453125 7.65625l-9.8125 0l0 2.3125l9.8125 0l0 -2.3125zm-13.625 -3.6875l17.4375 0l0 10.8125l-3.8125 0l0 -1.125l-9.8125 0l0 1.5l-3.8125 0l0 -11.1875zm0.75 -0.8125l0 -3.6875l15.4375 0l0 3.6875l-15.4375 0zm0 -4.375l0 -3.6875l15.4375 0l0 3.6875l-15.4375 0zm-2.875 -7.937502l21.4375 0l0 3.687502l-21.4375 0l0 -3.687502zm2.875 -4.5l15.4375 0l0 3.6875l-15.4375 0l0 -3.6875zm25.3125 21.671877q2.484375 -4.40625 3.1875 -6.609375l-7.75 0l0 -3.6875l30.1875 0l0 3.6875l-18.1875 0q-0.359375 1.078125 -0.453125 1.3125l14.609375 0q-1.125 8.40625 -2.984375 10.9375q-1.21875 1.53125 -4.328125 1.25l-3.9375 -0.4375l-0.1875 -4.0625l4.625 0.4375q0.78125 0.078125 1.203125 -0.84375q0.234375 -0.578125 0.90625 -3.59375l-11.234375 0q-0.34375 0.875 -1.5 2.875l-4.15625 -1.265625zm4.5 -18.234377l0 2.8125l12.0625 0l0 -2.8125l-12.0625 0zm12.0625 7.375002l0 -0.875l-12.0625 0l0 1.125l-3.8125 0l0 -11.312502l19.6875 0l0 11.062502l-3.8125 0z" fill-rule="nonzero"/><path fill="#000000" d="m487.05988 48.334217q0.140625 2.90625 -1.46875 3.71875q-1.609375 0.8125 -4.9375 1.28125q-0.5 -2.03125 -1.5 -4.4375q3.34375 0.15625 3.796875 -0.078125q0.46875 -0.25 0.546875 -1.0l0 -20.437502l-10.8125 0l0 10.593752q0 5.34375 -0.90625 8.5q-0.90625 3.15625 -3.734375 7.25q-1.203125 -1.609375 -3.3125 -2.671875q2.109375 -2.4375 2.890625 -4.171875q0.78125 -1.734375 1.140625 -3.71875q0.359375 -2.0 0.359375 -8.4375q0 -6.609377 -0.15625 -10.531252l18.265625 0q-0.171875 2.546875 -0.171875 5.65625l0 18.484377zm-4.078125 -8.765625q-0.171875 2.421875 -0.171875 3.90625q0 1.484375 0.15625 4.40625l-9.875 0q0.15625 -2.921875 0.15625 -4.40625q0 -1.484375 -0.171875 -3.90625l9.90625 0zm-15.53125 0.546875q0.875 1.984375 2.125 3.234375q-2.0625 2.078125 -3.0625 3.203125q-1.0 1.109375 -3.25 3.53125q-1.34375 -1.53125 -2.5 -2.703125q1.109375 -1.28125 1.109375 -2.15625l0 -9.34375l-0.46875 0q-0.859375 0 -3.90625 0.15625l0 -3.625q3.046875 0.15625 3.90625 0.15625l4.1875 0q-0.15625 2.921875 -0.15625 5.65625l-0.265625 5.078125q-0.234375 -0.171875 2.28125 -3.1875zm8.796875 -9.796877q0 -0.8125 -0.171875 -3.125l3.796875 0q-0.1875 2.1875 -0.1875 3.125q0.703125 0 3.25 -0.171875l0 3.531252q-2.546875 -0.171875 -3.25 -0.171875l0 1.8125q1.5625 0 3.75 -0.1875l0 3.671875q-2.671875 -0.171875 -5.28125 -0.171875q-2.609375 0 -5.40625 0.171875l0 -3.65625q2.796875 0.171875 3.5 0.171875l0 -1.8125q-0.953125 0 -3.375 0.171875l0 -3.531252q2.546875 0.171875 3.375 0.171875zm3.125 14.500002l0 -2.1875l-2.6875 0l0 2.1875l2.6875 0zm-16.421875 -21.562502q1.84375 2.1875 4.546875 5.796875q-1.671875 0.9375 -3.046875 2.5q-2.9375 -4.40625 -4.46875 -5.953125q1.640625 -1.015625 2.96875 -2.34375z" fill-rule="nonzero"/><path fill="#000000" d="m501.74738 44.912342q-5.40625 1.9375 -9.34375 2.984375q-0.734375 1.953125 -1.859375 0.09375l-1.109375 -3.640625l4.5625 -0.90625l0 -5.6875l-3.375 0l0 -3.6875l3.375 0l0 -5.312502l-3.75 0l0 -3.6875l11.3125 0l0 3.6875l-3.75 0l0 5.312502l3.375 0l0 3.6875l-3.375 0l0 4.84375q0.203125 -0.015625 3.53125 -1.125l0.40625 3.4375zm9.8125 -5.65625l0 2.3125l7.0 0l0 3.6875l-7.0 0l0 2.5625l8.25 0l0 3.6875l-21.1875 0l0 -3.6875l9.5 0l0 -2.5625l-6.75 0l0 -3.6875l6.75 0l0 -2.3125l-3.1875 0l0 1.625l-3.4375 0l0 -16.687502l16.8125 0l0 16.187502l-3.4375 0l0 -1.125l-3.3125 0zm3.3125 -5.75l-3.3125 0l0 2.4375l3.3125 0l0 -2.4375zm0 -6.000002l-3.3125 0l0 2.6875l3.3125 0l0 -2.6875zm-6.75 2.6875l0 -2.6875l-3.1875 0l0 2.6875l3.1875 0zm0 3.312502l-3.1875 0l0 2.4375l3.1875 0l0 -2.4375z" fill-rule="nonzero"/><path fill="#000000" d="m552.23175 47.240467q-1.125 3.6875 -2.03125 4.65625q-0.890625 0.984375 -2.921875 0.984375l-9.734375 0q-4.015625 0.15625 -4.171875 -4.015625l0 -3.734375l-5.9375 0l0 2.375l-4.25 0q0.1875 -1.9375 0.1875 -9.28125q0 -7.359377 -0.15625 -10.281252l10.15625 0q0 -2.703125 -0.171875 -5.25l4.15625 0q-0.171875 2.3125 -0.171875 5.25l10.171875 0q-0.171875 2.546875 -0.171875 8.406252q0 5.734375 0.15625 8.78125l-10.15625 0l0 2.71875q0 1.59375 1.71875 1.59375l6.625 0q1.5625 0 1.828125 -0.625q0.28125 -0.640625 0.65625 -3.5q2.03125 1.421875 4.21875 1.921875zm-8.859375 -5.546875l0 -3.6875l-6.1875 0l0 3.6875l6.1875 0zm-10.0 0l0 -3.6875l-5.9375 0l0 3.6875l5.9375 0zm10.0 -7.0l0 -3.312502l-6.1875 0l0 3.312502l6.1875 0zm-10.0 0l0 -3.312502l-5.9375 0l0 3.312502l5.9375 0z" fill-rule="nonzero"/><path fill="#000000" d="m577.3724 47.568592l0 -4.3125l-4.9375 0l0 4.3125l4.9375 0zm3.8125 4.6875l-3.8125 0l0 -1.375l-4.9375 0l0 1.75l-3.8125 0l0 -12.6875l12.5625 0l0 12.3125zm-8.59375 -23.250002q0.265625 0.75 2.140625 2.8125q1.71875 -2.296875 1.9375 -2.8125l-4.078125 0zm2.203125 8.218752q-4.046875 3.703125 -8.484375 5.328125l-1.6875 -3.734375q4.078125 -1.296875 7.578125 -4.375q-0.5625 -0.5625 -1.5625 -2.1875q-0.8125 1.84375 -2.609375 3.640625l-2.734375 -2.734375q3.265625 -4.359377 5.03125 -10.875002l3.421875 0.984375q1.546875 1.546875 -0.25 1.796875l-0.109375 0.25l5.015625 0l0.578125 -0.953125l2.578125 2.09375q1.453125 1.078125 -0.421875 1.78125q-1.671875 3.843752 -3.65625 6.140627q3.609375 2.75 7.140625 3.9375l-1.4375 3.984375q-3.734375 -1.25 -8.390625 -5.078125zm-8.484375 -12.781252l0 10.562502l-3.125 0l0 3.3125l2.875 0l0 3.6875l-2.875 0l0 4.203125l4.203125 -1.328125l0.796875 3.5625l-11.6875 3.296875q-0.234375 1.890625 -1.78125 0.34375l-1.328125 -3.625l1.734375 -0.296875l0 -11.71875l3.078125 0q2.703125 0.34375 0.734375 1.75l0 9.09375l0.4375 -0.09375l0 -12.1875l-1.59375 0l-2.78125 0l0 -10.562502l11.3125 0zm-3.8125 7.25l0 -3.9375l-3.6875 0l0 3.9375l3.6875 0z" fill-rule="nonzero"/><path fill="#000000" fill-opacity="0.0" d="m23.602362 71.580055l244.97638 0l0 119.37008l-244.97638 0z" fill-rule="evenodd"/><path stroke="#000000" stroke-width="3.0" stroke-linejoin="round" stroke-linecap="butt" d="m23.602362 71.580055l244.97638 0l0 119.37008l-244.97638 0z" fill-rule="evenodd"/><path fill="#000000" d="m35.340553 112.23509q4.75 -5.625 5.625 -13.875l2.875 0.75q0.5 0.5 -0.375 0.75q-0.625 3.625 -1.625 6.5q1.375 0.125 0.25 0.875l0 19.5l-2.5 0l0 -15.75q-0.875 1.75 -2.375 3.5l-1.875 -2.25zm24.25 7.0l-11.125 0l0 3.625l11.125 0l0 -3.625zm-13.625 -2.375l16.125 0l0 9.5l-2.5 0l0 -1.125l-11.125 0l0 1.5l-2.5 0l0 -9.875zm0.75 -2.125l0 -2.375l14.125 0l0 2.375l-14.125 0zm0 -4.375l0 -2.375l14.125 0l0 2.375l-14.125 0zm-2.875 -6.625l20.125 0l0 2.375l-20.125 0l0 -2.375zm2.875 -4.5l14.125 0l0 2.375l-14.125 0l0 -2.375zm25.625 20.625q2.125 -3.75 3.125 -6.875l-8.0 0l0 -2.375l28.875 0l0 2.375l-18.0 0q-0.5 1.5 -1.0 2.625l14.875 0q-1.0 7.5 -2.75 9.875q-1.0 1.25 -3.75 1.0l-3.375 -0.375l-0.125 -2.75l3.875 0.375q1.25 0.125 1.875 -1.25q0.25 -0.625 1.125 -4.5l-12.5 0q-0.5 1.25 -1.375 2.75l-2.875 -0.875zm2.875 -18.5l0 4.125l13.375 0l0 -4.125l-13.375 0zm13.375 7.375l0 -0.875l-13.375 0l0 1.125l-2.5 0l0 -10.0l18.375 0l0 9.75l-2.5 0zm37.625 -7.625q0.25 0.5 -1.0 0.125q-8.625 1.125 -23.375 1.625l-0.5 -2.5q13.625 -0.375 23.125 -1.875l1.75 2.625zm-11.125 11.375l12.0 0l0 2.375l-11.625 0q3.375 4.375 12.375 7.0l-0.75 3.25q-8.125 -2.625 -12.0 -7.0l0 8.625l-2.5 0l0 -8.25q-4.375 4.875 -11.625 7.0l-1.125 -3.0q8.625 -2.25 12.625 -7.625l-11.75 0l0 -2.375l11.875 0l0 -2.5l2.375 0q1.0 0.125 0.125 0.75l0 1.75zm4.625 -3.0q1.375 -3.25 2.0 -6.625l3.0 0.5q0.875 0.125 -0.125 0.75q-0.75 2.75 -2.125 5.875l-2.75 -0.5zm-7.125 -0.375q-0.5 -3.0 -1.25 -5.25l3.0 -0.5q0.875 2.125 1.25 5.125l-3.0 0.625zm-6.5 -5.25q1.75 3.375 1.625 5.625l-3.0 0.375q-0.125 -2.25 -1.5 -5.375l2.875 -0.625zm34.749992 -4.5q-0.375 1.125 -1.375 2.125l6.125 0q0.875 -2.0 1.25 -3.25l2.5 0.5q0.5 0.5 -0.375 0.625l-1.0 2.125l10.0 0l0 2.0l-10.375 0l0 1.625l8.375 0l0 2.0l-8.375 0l0 1.625l8.375 0l0 2.0l-8.375 0l0 1.875l11.25 0l0 2.0l-11.25 0l0 1.875l12.25 0l0 2.375l-9.75 0q4.0 2.875 10.25 4.25l-0.875 2.5q-7.0 -1.75 -11.875 -6.25l0 7.375l-2.5 0l0 -7.25q-3.875 4.0 -12.375 6.5l-0.875 -2.375q6.375 -1.625 10.75 -4.75l-10.0 0l0 -2.375l12.5 0l0 -1.875l-4.375 0l-4.375 0l0 -8.875q-1.125 1.25 -2.75 2.5l-1.375 -1.75q4.75 -3.875 6.625 -8.5l2.375 0.75q0.5 0.5 -0.375 0.625zm-2.375 11.375l0 1.875l6.625 0l0 -1.875l-6.625 0zm0 -3.625l0 1.625l6.625 0l0 -1.625l-6.625 0zm0 -3.625l0 1.625l6.625 0l0 -1.625l-6.625 0zm43.25 19.375q0.75 -1.25 1.375 -5.0l-18.875 0l0 -2.375l19.125 0q0.25 -2.5 0.375 -4.5l-11.25 0l-0.5 2.375l-2.75 -0.375q1.75 -7.75 2.375 -14.375l3.0 0.375q0.5 0.5 -0.375 0.625l-0.375 2.625l14.5 0l0 2.375l-14.875 0l-0.625 4.0l13.625 0q-0.5 6.0 -0.625 6.875l6.25 0l0 2.375l-6.5 0q-0.375 3.5 -1.375 6.0q-1.0 2.375 -3.625 2.375l-4.5 0l-0.375 -2.375l4.0 0q1.375 0 2.0 -1.0z" fill-rule="nonzero"/><path fill="#000000" d="m224.84055 122.36009q-0.875 2.875 -1.625 3.6875q-0.75 0.8125 -2.5 0.8125l-9.75 0q-3.375 0.125 -3.5 -3.375l0 -4.375l-7.25 0l0 2.375l-2.875 0q0.125 -1.25 0.125 -8.625q0 -7.375 -0.125 -9.625l10.125 0q0 -3.375 -0.125 -5.25l2.75 0q-0.125 1.625 -0.125 5.25l10.125 0q-0.125 1.875 -0.125 7.75q0 5.75 0.125 8.125l-10.125 0l0 3.375q0 2.25 2.375 2.25l6.625 0q2.0 0 2.375 -0.875q0.375 -0.875 0.625 -2.75q1.25 0.875 2.875 1.25zm-7.375 -5.375l0 -5.0l-7.5 0l0 5.0l7.5 0zm-10.0 0l0 -5.0l-7.25 0l0 5.0l7.25 0zm10.0 -7.0l0 -4.625l-7.5 0l0 4.625l7.5 0zm-10.0 0l0 -4.625l-7.25 0l0 4.625l7.25 0z" fill-rule="nonzero"/><path fill="#000000" d="m232.71555 105.23509q-1.75 -1.875 -3.875 -3.375l1.875 -2.25q2.25 1.375 3.875 3.25l-1.875 2.375zm13.625 -3.75l9.25 0l0 2.375l-10.5 0l-2.875 4.75l7.375 -0.375l-2.75 -2.125l2.0 -1.25q4.125 2.375 7.0 5.625l-2.125 1.75l-2.0 -2.0l-14.875 1.125q-0.125 0.875 -0.625 0.375l-0.875 -2.875l4.25 -0.125l2.25 -4.875l-6.5 0l0 -2.375l8.125 0l0 -3.375l2.75 0q1.25 0.25 0.125 1.0l0 2.375zm-18.625 22.875q2.625 -4.25 4.625 -9.375l2.25 1.5q-2.0 5.75 -4.125 9.25q0.25 0.75 -0.375 0.625l-2.375 -2.0zm4.75 -11.875q-1.875 -1.5 -4.125 -3.125l1.625 -2.375q2.625 1.625 4.25 3.0l-1.75 2.5zm13.5 12.375l-2.5 0l0 -11.875l2.375 0q1.0 0.125 0.125 0.75l0 11.125zm3.0 -12.125l2.375 0q1.0 0.125 0.125 0.75l0 9.375q0 1.0 0.875 1.0l0.75 0q0.625 0 0.75 -0.875l0.25 -2.0l2.5 0.625q-0.125 1.625 -0.5 3.125q-0.375 1.5 -1.875 1.5l-3.25 0q-2.0 0 -2.0 -2.125l0 -11.375zm-8.625 6.0q0 5.25 -5.625 8.125l-1.75 -2.125q4.875 -2.5 4.875 -6.5l0 -5.375l2.375 0q1.0 0.125 0.125 0.75l0 5.125z" fill-rule="nonzero"/><path fill="#000000" d="m112.84055 160.36009q-0.875 2.875 -1.625 3.6875q-0.75 0.8125 -2.5 0.8125l-9.75 0q-3.375 0.125 -3.5 -3.375l0 -4.375l-7.25 0l0 2.375l-2.875 0q0.125 -1.25 0.125 -8.625q0 -7.375 -0.125 -9.625l10.125 0q0 -3.375 -0.125 -5.25l2.75 0q-0.125 1.625 -0.125 5.25l10.125 0q-0.125 1.875 -0.125 7.75q0 5.75 0.125 8.125l-10.125 0l0 3.375q0 2.25 2.375 2.25l6.625 0q2.0 0 2.375 -0.875q0.375 -0.875 0.625 -2.75q1.25 0.875 2.875 1.25zm-7.375 -5.375l0 -5.0l-7.5 0l0 5.0l7.5 0zm-10.0 0l0 -5.0l-7.25 0l0 5.0l7.25 0zm10.0 -7.0l0 -4.625l-7.5 0l0 4.625l7.5 0zm-10.0 0l0 -4.625l-7.25 0l0 4.625l7.25 0zm35.124992 0.375l0 -3.75q0 -2.0 -0.125 -3.375l2.875 0q-0.25 1.0 -0.25 3.5l0 3.625l4.5 0q2.625 0 3.875 -0.125l0 2.75q-1.25 -0.125 -3.875 -0.125l-4.5 0l0 10.25l5.5 0q3.125 0 4.75 -0.125l0 2.625q-1.625 -0.125 -4.625 -0.125l-12.749992 0q-3.25 0 -4.625 0.125l0 -2.625q1.875 0.125 4.625 0.125l4.6249924 0l0 -10.25l-2.8749924 0q-3.25 0 -4.375 0.125l0 -2.75q2.0 0.125 4.375 0.125l2.8749924 0zm8.0 -11.125q2.75 0 4.25 -0.125l0 2.5q-1.25 -0.125 -4.25 -0.125l-17.249992 0l0 11.125q0 4.25 -0.9375 7.75q-0.9375 3.5 -2.6875 6.875q-1.0 -1.0 -2.625 -1.625q2.125 -3.125 2.875 -5.9375q0.75 -2.8125 0.875 -6.3125l0 -9.375q-0.125 -2.625 -0.25 -4.75l19.999992 0zm-1.375 15.5q2.0 2.625 3.25 4.625q-1.375 0.75 -2.5 1.5q-1.25 -2.625 -2.75 -4.75q1.125 -0.625 2.0 -1.375zm33.75 12.625q-2.125 -1.75 -4.875 -3.5625q-2.75 -1.8125 -4.875 -2.6875q0.75 -0.875 1.375 -1.875q1.375 0.75 4.0 2.25q2.5 -3.0 4.5 -5.5l-8.875 0l1.5 -5.25l-0.625 0q-1.5 0 -3.375 0.125l0 -2.25q1.625 0.125 3.125 0.125l1.375 0l0.875 -3.875l-1.125 0q-2.25 0 -3.375 0.125l0 -2.25q1.875 0.25 3.0 0.25l1.75 0q0.5 -2.875 0.625 -4.875l3.0 0.5q-0.625 1.0 -0.8125 1.875q-0.1875 0.875 -0.5625 2.5l4.5 0q1.625 0 3.125 -0.125l0 2.125q-2.125 -0.125 -3.5 -0.125l-4.375 0l-0.875 3.875l5.25 0q2.0 0 4.5 -0.125l0 2.25q-2.375 -0.125 -4.75 -0.125l-5.5 0l-0.875 3.5l9.5 0l0 2.0q-0.875 0.5 -2.3125 2.0q-1.4375 1.5 -3.6875 4.5q2.125 1.375 3.875 2.625l-1.5 2.0zm-14.75 -9.875q1.625 -0.25 3.5 -0.5l0 2.125q-1.125 0.125 -3.5 0.5q0 5.0 0.125 7.25l-2.5 0q0.125 -3.875 0.125 -6.75q-5.0 0.75 -6.375 1.125q-0.25 -1.375 -0.5 -2.625q1.75 -0.125 6.875 -0.625l0 -4.25q-4.0 0 -5.75 0.5l-0.875 -2.5q1.125 -0.875 2.0625 -2.875q0.9375 -2.0 1.5625 -4.125q-1.25 0 -3.5 0.125l0 -2.25q2.0 0.125 4.0 0.125q0.875 -2.625 1.125 -4.625q2.125 0.625 2.875 0.875q-0.75 1.25 -1.75 3.75l5.375 0l0 2.125q-2.0 -0.125 -3.375 -0.125l-2.5 0q-0.625 1.875 -2.875 7.0l3.625 0q0 -2.75 -0.125 -4.5l2.5 0q-0.125 1.5 -0.125 4.5q1.625 0 3.125 -0.125l0 2.25q-1.375 -0.125 -3.125 -0.125l0 3.75zm28.0 -16.25q0 -1.75 -0.125 -3.25l2.5 0q-0.25 1.375 -0.25 3.25l0 3.75q1.375 0 3.25 -0.125l0 2.0q2.125 -2.125 3.5 -4.375q1.375 -2.25 2.125 -4.5q1.0 0.625 2.625 1.25q-0.75 0.75 -1.75 2.5l8.625 0q-2.5 3.5 -3.75 5.625l5.125 0l0 8.375q1.375 0 2.75 -0.125l0 2.125q-2.125 -0.125 -3.5 -0.125l-4.75 0q1.125 2.875 3.6875 4.75q2.5625 1.875 4.5625 2.375q-1.375 1.125 -1.875 2.375q-2.0 -0.875 -4.25 -2.9375q-2.25 -2.0625 -3.875 -5.1875q-1.875 4.75 -9.5 8.125q-0.375 -1.0 -1.625 -2.125q3.625 -1.0 6.0625 -3.125q2.4375 -2.125 3.1875 -4.25l-5.625 0q-0.75 0 -2.75 0.125l0 -2.125q1.875 0.125 2.875 0.125l0 -5.125q0 -1.875 -0.125 -2.375l-0.5 0.625q-0.75 -0.875 -1.875 -1.5l0.5 -0.375q-1.75 -0.125 -3.125 -0.125l0 5.375q1.375 -0.625 2.75 -1.5q0.125 1.0 0.375 2.125q-1.25 0.625 -3.125 1.625l0 9.25q0 1.625 -0.9375 2.25q-0.9375 0.625 -3.6875 1.0q-0.125 -1.125 -1.0 -2.625q2.625 0.125 3.0625 -0.125q0.4375 -0.25 0.4375 -1.0l0 -7.75q-2.125 1.125 -3.5 2.0q-0.5 -1.125 -1.375 -2.25q3.125 -1.125 4.875 -2.0l0 -6.375q-2.75 0 -4.625 0.125l0 -2.125q1.75 0.125 4.625 0.125l0 -3.75zm19.75 14.5l0 -6.5l-4.0 0q0 3.25 -0.25 6.5l4.25 0zm-6.625 0q0.25 -3.25 0.375 -6.5l-4.125 0l0 6.5l3.75 0zm-2.25 -12.25q-1.625 2.375 -3.0 3.875l6.5 0l2.25 -3.875l-5.75 0z" fill-rule="nonzero"/><path fill="#000000" fill-opacity="0.0" d="m307.66534 71.580055l188.8504 0l0 119.37008l-188.8504 0z" fill-rule="evenodd"/><path stroke="#000000" stroke-width="3.0" stroke-linejoin="round" stroke-linecap="butt" d="m307.66534 71.580055l188.8504 0l0 119.37008l-188.8504 0z" fill-rule="evenodd"/><path fill="#000000" d="m355.59055 125.11009l-5.0 0l0 6.0q0 2.75 -0.375 5.4375q-0.375 2.6875 -1.25 5.1875q-0.875 2.5 -2.125 4.625q-1.0 -1.0 -2.125 -1.5q1.625 -2.0 2.625 -5.0625q1.0 -3.0625 1.125 -6.125q0.125 -3.0625 0.125 -5.6875q0 -2.75 -0.125 -4.75l6.875 0l0 -3.125q0 -1.125 -0.125 -3.0l2.375 0q-0.125 1.25 -0.125 2.25l5.125 0q1.25 0 3.625 -0.125l0 2.125q-2.375 -0.125 -3.625 -0.125l-5.125 0l0 2.0l10.0 0q-0.25 1.0 -0.5 1.875q-0.25 0.875 -0.75 2.875q-1.0 -0.375 -2.25 -0.625q0.5 -1.125 0.75 -2.25l-7.125 0l0 3.125q1.875 -0.375 5.5 -1.375l0.375 2.0q-3.125 0.625 -5.875 1.25l0 1.375q0 1.125 1.25 1.125l3.625 0q1.375 0.125 1.625 -2.375q1.125 0.75 2.25 1.125q-0.875 2.5 -1.5625 2.8125q-0.6875 0.3125 -2.1875 0.3125l-4.875 0q-2.125 0 -2.125 -2.125l0 -1.75q-1.625 0.375 -3.875 0.875l-0.625 -2.125q2.875 -0.375 4.5 -0.75l0 -3.5zm9.625 17.5q-0.75 2.25 -1.5 2.75q-0.75 0.5 -1.5 0.5l-5.5 0q-2.0 0 -2.0 -2.25l0 -2.625q0 -0.625 -0.125 -3.25l2.25 0q-0.125 2.625 -0.125 4.5l0 0.25q0 1.375 1.5 1.375l2.875 0q0.75 0 1.25 -0.4375q0.5 -0.4375 0.625 -1.9375q1.125 0.75 2.25 1.125zm-18.5 -8.375q-0.375 0.625 -1.25 2.9375q-0.875 2.3125 -1.625 3.9375q-0.75 1.625 -1.875 4.0q-1.25 -1.125 -2.375 -1.375q2.0 -2.625 3.25 -5.6875q1.25 -3.0625 1.875 -5.0625l2.0 1.25zm-5.375 -8.375q1.375 0.875 5.375 3.5q-0.875 0.875 -1.5 2.0q-1.0 -0.875 -5.125 -3.625q0.75 -1.0 1.25 -1.875zm12.25 12.75q-0.625 1.875 -2.375 6.25q-1.0 -0.5 -1.875 -1.125q1.75 -3.75 2.25 -6.0q0.875 0.375 2.0 0.875zm-11.25 -20.125q0.875 0.5 2.25 1.375q1.375 0.875 3.0 2.0q-1.0 1.0 -1.5 2.0q-3.0 -2.625 -5.125 -3.625q0.75 -0.875 1.375 -1.75zm23.125 18.125q1.0 1.375 1.75 2.5625q0.75 1.1875 1.625 2.5625q-1.0 0.5 -1.875 1.25q-0.75 -1.5 -3.25 -5.125q0.875 -0.5 1.75 -1.25zm-6.125 -1.375q0.875 1.375 1.1875 1.875q0.3125 0.5 1.5625 2.625q-1.125 0.375 -2.0 1.125q-0.875 -1.875 -2.5 -4.5q1.0 -0.5 1.75 -1.125z" fill-rule="nonzero"/><path fill="#000000" d="m382.84055 142.61009q4.0 -1.375 6.5 -3.875q-2.75 -3.25 -3.875 -7.25l-1.75 0l0 4.0q0 6.125 -3.75 10.125l-1.75 -2.5q3.0 -2.25 3.0 -7.625l0 -14.0l7.75 0l0 -4.125l2.5 0q1.25 0.25 0 1.0l0 3.125l6.125 0l0.25 -0.5l2.625 1.5q0.5 0.625 -0.5 0.75l-2.0 4.375l-2.375 -1.25l1.0 -2.5l-5.125 0l0 5.25l3.875 0l0.25 -0.625l2.25 1.375q0.5 0.5 -0.375 0.75q-1.5 4.25 -4.5 8.0q2.375 2.25 7.25 4.0l-1.0 2.875q-5.25 -2.5 -8.0 -4.875q-2.75 2.5 -7.25 4.75l-1.125 -2.75zm-10.625 0.375q2.875 -4.0 4.5 -8.25l2.25 1.375q-1.625 4.5 -4.0 8.5q0.375 1.25 -0.5 0.625l-2.25 -2.25zm5.625 -18.875q-1.625 -2.0 -3.75 -3.5l1.875 -2.125q2.5 1.375 3.875 3.375l-2.0 2.25zm-3.5 1.875q2.25 1.375 4.0 3.5l-1.875 2.125q-1.75 -2.0 -3.875 -3.5l1.75 -2.125zm9.375 3.125l5.25 0l0 -5.25l-5.25 0l0 5.25zm4.25 2.375q0.75 2.875 3.25 5.5q2.375 -3.125 3.125 -5.5l-6.375 0z" fill-rule="nonzero"/><path fill="#000000" d="m432.84055 141.36009q-0.875 2.875 -1.625 3.6875q-0.75 0.8125 -2.5 0.8125l-9.75 0q-3.375 0.125 -3.5 -3.375l0 -4.375l-7.25 0l0 2.375l-2.875 0q0.125 -1.25 0.125 -8.625q0 -7.375 -0.125 -9.625l10.125 0q0 -3.375 -0.125 -5.25l2.75 0q-0.125 1.625 -0.125 5.25l10.125 0q-0.125 1.875 -0.125 7.75q0 5.75 0.125 8.125l-10.125 0l0 3.375q0 2.25 2.375 2.25l6.625 0q2.0 0 2.375 -0.875q0.375 -0.875 0.625 -2.75q1.25 0.875 2.875 1.25zm-7.375 -5.375l0 -5.0l-7.5 0l0 5.0l7.5 0zm-10.0 0l0 -5.0l-7.25 0l0 5.0l7.25 0zm10.0 -7.0l0 -4.625l-7.5 0l0 4.625l7.5 0zm-10.0 0l0 -4.625l-7.25 0l0 4.625l7.25 0z" fill-rule="nonzero"/><path fill="#000000" d="m459.46555 141.86009l0 -5.625l-6.25 0l0 5.625l6.25 0zm2.5 3.375l-2.5 0l0 -1.375l-6.25 0l0 1.75l-2.5 0l0 -11.375l11.25 0l0 11.0zm-8.875 -23.25q0.625 1.75 3.125 4.5q2.25 -3.0 2.875 -4.5l-6.0 0zm3.125 8.0q-4.375 4.0 -8.125 5.375l-1.125 -2.5q3.5 -1.125 7.625 -4.75q-1.0 -1.0 -2.625 -3.625q-1.25 2.875 -2.5 4.125l-1.875 -1.875q3.0 -4.0 4.625 -10.0l2.625 0.75q0.5 0.5 -0.375 0.625l-0.625 1.5l6.375 0l0.375 -0.625l2.0 1.625q0.5 0.375 -0.5 0.75q-1.75 4.0 -4.125 6.75q4.25 3.25 7.25 4.25l-1.0 2.75q-3.0 -1.0 -8.0 -5.125zm-9.125 -11.25l0 9.25l-3.125 0l0 4.625l2.875 0l0 2.375l-2.875 0l0 5.75l4.375 -1.375l0.5 2.25l-11.5 3.25q-0.125 1.0 -0.625 0.5l-1.0 -2.75l1.5 -0.25l0 -11.625l2.375 0q1.0 0.125 0.125 0.75l0 10.25l1.75 -0.375l0 -13.375l-2.25 0l-2.125 0l0 -9.25l10.0 0zm-2.5 7.25l0 -5.25l-5.0 0l0 5.25l5.0 0z" fill-rule="nonzero"/><path fill="#000000" fill-opacity="0.0" d="m763.54724 268.4147l188.8504 0l0 119.37009l-188.8504 0z" fill-rule="evenodd"/><path stroke="#000000" stroke-width="3.0" stroke-linejoin="round" stroke-linecap="butt" d="m763.54724 268.4147l188.8504 0l0 119.37009l-188.8504 0z" fill-rule="evenodd"/><path fill="#000000" d="m805.9724 342.31973q-3.0 -3.5 -5.0 -5.125q-4.75 3.875 -10.125 5.5l-1.125 -2.5q9.625 -2.5 15.25 -12.125l2.0 1.375q0.5 0.5 -0.375 0.625q-1.375 2.625 -3.875 5.25q3.625 2.5 5.375 4.375l-2.125 2.625zm-1.125 -18.25q0.5 0.375 -0.5 0.625q-4.25 7.5 -11.5 11.25l-1.25 -2.5q3.125 -1.5 5.0 -3.125q-1.875 -2.0 -4.625 -4.0l1.5 -2.0l1.125 0.75q1.625 -2.25 2.625 -4.0l-5.625 0l0 -2.375l6.125 0l0 -4.5l2.375 0q1.0 0.125 0.125 0.75l0 3.75l7.25 0l0 2.375l-7.125 0q-1.875 3.0 -4.0 5.5q1.0 0.625 2.25 1.875q2.25 -2.25 4.125 -5.75l2.125 1.375zm-17.625 18.5l-2.5 0l0 -13.0q-1.25 3.625 -3.75 6.375l-1.5 -2.5q4.0 -4.5 5.25 -10.75l-4.375 0l0 -2.375l4.375 0l0 -6.25l2.375 0q1.0 0.125 0.125 0.75l0 5.5l3.25 0l0 2.375l-3.25 0l0 3.875q2.625 1.25 4.5 3.0l-1.375 2.625q-1.625 -1.875 -3.125 -2.875l0 13.25zm47.125 -19.875q3.125 3.375 5.625 10.75l-2.75 1.5q-2.0 -7.25 -5.0 -10.625l2.125 -1.625zm-14.625 -2.375l2.75 0q1.25 0.25 0.125 1.0l0 16.5q0 1.0 0.875 1.0l6.75 0q0.875 0 1.0 -0.75l1.0 -4.625l3.0 0.875l-1.125 4.75q-0.625 2.5 -2.5 2.5l-9.625 0q-2.25 0 -2.25 -2.125l0 -19.125zm-2.5 3.875q0.5 0.5 -0.375 0.625q-0.25 6.375 -2.125 12.125l-2.75 -1.0q2.0 -5.75 2.125 -12.5l3.125 0.75zm5.75 -9.75q4.875 2.75 6.625 5.0l-1.875 2.5q-2.0 -2.375 -6.5 -5.25l1.75 -2.25z" fill-rule="nonzero"/><path fill="#000000" d="m852.9724 315.19473q-0.625 0.625 -1.0 1.6875q-0.375 1.0625 -0.875 2.6875l8.0 0q-0.25 2.25 -0.5 3.8125q-0.25 1.5625 -0.6875 3.5q-0.4375 1.9375 -1.1875 4.125q-0.75 2.1875 -1.625 3.8125q0.875 1.0 2.5625 2.125q1.6875 1.125 4.1875 1.8125q2.5 0.6875 5.3125 0.875q2.8125 0.1875 5.6875 0.0625q-1.25 1.5 -1.5 2.875q-3.875 0 -6.8125 -0.5625q-2.9375 -0.5625 -4.625 -1.125q-1.6875 -0.5625 -3.375 -1.75q-1.6875 -1.1875 -2.9375 -2.5625q-1.875 1.875 -3.625 3.25q-1.75 1.375 -5.0 3.125q-0.875 -1.375 -1.875 -2.125q2.75 -1.0 5.3125 -2.75q2.5625 -1.75 3.6875 -3.375q-1.5 -2.0 -2.375 -4.0q-0.875 -2.0 -1.625 -4.125q-1.75 3.375 -2.625 4.625q-1.0 -1.0 -2.25 -1.375q1.125 -1.25 2.375 -3.375q1.25 -2.125 2.0625 -4.125q0.8125 -2.0 1.375 -4.25q0.5625 -2.25 0.8125 -4.0q1.375 0.75 3.125 1.125zm11.5 -0.875q-0.125 1.875 -0.125 4.125l0 12.5q0 2.625 0.125 6.625l-2.625 0q0.125 -4.0 0.125 -6.625l0 -12.5q0 -2.25 -0.125 -4.125l2.625 0zm-14.875 9.5q0.5 2.125 1.5 4.4375q1.0 2.3125 2.5 4.1875q1.0 -2.125 1.6875 -4.8125q0.6875 -2.6875 1.0625 -5.9375l-5.875 0q-0.625 1.375 -0.875 2.125zm17.25 -2.375q1.375 1.625 3.0 3.375q1.625 1.75 2.875 3.25q-0.875 0.5 -2.25 1.875q-1.0 -1.5 -2.375 -3.3125q-1.375 -1.8125 -3.125 -3.6875q1.0 -0.625 1.875 -1.5z" fill-rule="nonzero"/><path fill="#000000" d="m886.3474 334.94473q-4.875 1.75 -9.125 2.875q-0.375 1.0 -0.75 0.375l-0.875 -2.875l4.375 -0.875l0 -6.875l-3.375 0l0 -2.375l3.375 0l0 -6.625l-3.75 0l0 -2.375l10.0 0l0 2.375l-3.75 0l0 6.625l3.375 0l0 2.375l-3.375 0l0 6.25q1.0 -0.125 3.625 -1.0l0.25 2.125zm9.875061 -5.875l0 3.625l7.0 0l0 2.375l-7.0 0l0 3.875l8.25 0l0 2.375l-19.875061 0l0 -2.375l9.500061 0l0 -3.875l-6.750061 0l0 -2.375l6.750061 0l0 -3.625l-4.500061 0l0 1.625l-2.125 0l0 -15.375l15.500061 0l0 14.875l-2.125 0l0 -1.125l-4.625 0zm4.625 -5.75l-4.625 0l0 3.75l4.625 0l0 -3.75zm0 -6.0l-4.625 0l0 4.0l4.625 0l0 -4.0zm-6.75 4.0l0 -4.0l-4.500061 0l0 4.0l4.500061 0zm0 2.0l-4.500061 0l0 3.75l4.500061 0l0 -3.75zm28.75 -0.875q1.0 0.25 0 0.75q-0.25 1.125 -0.625 2.125l13.25 0l0 2.375l-9.5 0q4.375 3.0 10.75 4.125l-0.625 2.625q-2.5 -0.5 -3.5 -1.0l0 8.5l-2.5 0l0 -1.375l-4.375 0l0 1.75l-2.5 0l0 -10.0l6.5 0q-3.625 -1.5 -6.625 -4.625l-2.0 0q-2.0 2.875 -5.375 4.625l5.0 0l0 9.75l-2.5 0l0 -1.5l-4.25 0l0 1.875l-2.5 0l0 -8.25q-1.125 0.625 -3.375 1.125l-0.875 -2.625q6.75 -1.0 11.0 -5.0l-9.75 0l0 -2.375l11.25 0q0.75 -1.375 1.0 -3.0l2.125 0.125zm-2.5 0.625l-2.5 0l0 -0.625l-4.875 0l0 1.125l-2.5 0l0 -8.75l9.875 0l0 8.25zm3.125 -8.25l10.0 0l0 8.25l-2.5 0l0 -0.625l-5.0 0l0 1.125l-2.5 0l0 -8.75zm6.625 23.75l0 -4.25l-4.375 0l0 4.25l4.375 0zm-12.25 -18.125l0 -3.625l-4.875 0l0 3.625l4.875 0zm13.125 -3.625l-5.0 0l0 3.625l5.0 0l0 -3.625zm-12.75 21.75l0 -4.25l-4.25 0l0 4.25l4.25 0z" fill-rule="nonzero"/><path fill="#000000" fill-opacity="0.0" d="m763.54724 71.580055l188.8504 0l0 119.37008l-188.8504 0z" fill-rule="evenodd"/><path stroke="#000000" stroke-width="3.0" stroke-linejoin="round" stroke-linecap="butt" d="m763.54724 71.580055l188.8504 0l0 119.37008l-188.8504 0z" fill-rule="evenodd"/><path fill="#000000" d="m814.4724 122.86009q0.875 2.625 2.625 4.625q1.25 -1.5 2.0 -4.625l-4.625 0zm0.75 -2.0l8.25 0l0 2.0l-2.125 0q-0.625 3.875 -2.375 6.125q1.75 1.5 5.5 2.25l-0.75 2.5q-4.0 -1.125 -6.375 -3.125q-3.0 2.25 -7.125 3.25l-1.0 -2.25q4.0 -1.0 6.25 -2.625q-1.75 -2.5 -2.5 -4.625q-0.625 1.5 -1.875 2.875l-1.25 -1.75q3.0 -3.375 4.0 -8.5l2.5 0.75q0.5 0.5 -0.375 0.625l-0.75 2.5zm-6.625 11.125q-2.625 -1.75 -3.5 -2.125l0 3.875l-2.125 0l0 -3.875q-2.125 2.25 -6.0 4.0l-1.125 -2.375q3.75 -1.375 6.625 -3.625l-4.375 0l0 -5.375l4.875 0l0 -1.5l-6.5 0l0 -2.0l6.5 0l0 -2.0l2.0 0q1.0 0.125 0.125 0.75l0 1.25l6.25 0l0 2.0l-6.25 0l0 1.5l4.625 0l0 5.375l-4.625 0q2.25 0.625 4.75 2.125l-1.25 2.0zm-5.625 -5.625l0 -2.375l-3.125 0l0 2.375l3.125 0zm5.0 0l0 -2.375l-2.875 0l0 2.375l2.875 0zm3.5 12.375l7.875 0l0 2.0l-7.875 0l0 2.375l11.875 0l0 2.0l-27.0 0l0 -2.0l5.625 0l0 -5.0l2.0 0q1.0 0.125 0.125 0.75l0 4.25l5.25 0l0 -6.375l-11.25 0l0 -2.0l23.625 0l0 2.0l-10.25 0l0 2.0zm21.125 -14.5q-1.75 -1.875 -3.875 -3.375l1.875 -2.25q2.25 1.375 3.875 3.25l-1.875 2.375zm13.625 -3.75l9.25 0l0 2.375l-10.5 0l-2.875 4.75l7.375 -0.375l-2.75 -2.125l2.0 -1.25q4.125 2.375 7.0 5.625l-2.125 1.75l-2.0 -2.0l-14.875 1.125q-0.125 0.875 -0.625 0.375l-0.875 -2.875l4.25 -0.125l2.25 -4.875l-6.5 0l0 -2.375l8.125 0l0 -3.375l2.75 0q1.25 0.25 0.125 1.0l0 2.375zm-18.625 22.875q2.625 -4.25 4.625 -9.375l2.25 1.5q-2.0 5.75 -4.125 9.25q0.25 0.75 -0.375 0.625l-2.375 -2.0zm4.75 -11.875q-1.875 -1.5 -4.125 -3.125l1.625 -2.375q2.625 1.625 4.25 3.0l-1.75 2.5zm13.5 12.375l-2.5 0l0 -11.875l2.375 0q1.0 0.125 0.125 0.75l0 11.125zm3.0 -12.125l2.375 0q1.0 0.125 0.125 0.75l0 9.375q0 1.0 0.875 1.0l0.75 0q0.625 0 0.75 -0.875l0.25 -2.0l2.5 0.625q-0.125 1.625 -0.5 3.125q-0.375 1.5 -1.875 1.5l-3.25 0q-2.0 0 -2.0 -2.125l0 -11.375zm-8.625 6.0q0 5.25 -5.625 8.125l-1.75 -2.125q4.875 -2.5 4.875 -6.5l0 -5.375l2.375 0q1.0 0.125 0.125 0.75l0 5.125z" fill-rule="nonzero"/><path fill="#000000" d="m888.7224 141.36009q-0.875 2.875 -1.625 3.6875q-0.75 0.8125 -2.5 0.8125l-9.75 0q-3.375 0.125 -3.5 -3.375l0 -4.375l-7.25 0l0 2.375l-2.875 0q0.125 -1.25 0.125 -8.625q0 -7.375 -0.125 -9.625l10.125 0q0 -3.375 -0.125 -5.25l2.75 0q-0.125 1.625 -0.125 5.25l10.125 0q-0.125 1.875 -0.125 7.75q0 5.75 0.125 8.125l-10.125 0l0 3.375q0 2.25 2.375 2.25l6.625 0q2.0 0 2.375 -0.875q0.375 -0.875 0.625 -2.75q1.25 0.875 2.875 1.25zm-7.375 -5.375l0 -5.0l-7.5 0l0 5.0l7.5 0zm-10.0 0l0 -5.0l-7.25 0l0 5.0l7.25 0zm10.0 -7.0l0 -4.625l-7.5 0l0 4.625l7.5 0zm-10.0 0l0 -4.625l-7.25 0l0 4.625l7.25 0z" fill-rule="nonzero"/><path fill="#000000" d="m915.3475 141.86009l0 -5.625l-6.25 0l0 5.625l6.25 0zm2.5 3.375l-2.5 0l0 -1.375l-6.25 0l0 1.75l-2.5 0l0 -11.375l11.25 0l0 11.0zm-8.875 -23.25q0.625 1.75 3.125 4.5q2.25 -3.0 2.875 -4.5l-6.0 0zm3.125 8.0q-4.375 4.0 -8.125 5.375l-1.125 -2.5q3.5 -1.125 7.625 -4.75q-1.0 -1.0 -2.625 -3.625q-1.25 2.875 -2.5 4.125l-1.875 -1.875q3.0 -4.0 4.625 -10.0l2.625 0.75q0.5 0.5 -0.375 0.625l-0.625 1.5l6.375 0l0.375 -0.625l2.0 1.625q0.5 0.375 -0.5 0.75q-1.75 4.0 -4.125 6.75q4.25 3.25 7.25 4.25l-1.0 2.75q-3.0 -1.0 -8.0 -5.125zm-9.125 -11.25l0 9.25l-3.125 0l0 4.625l2.875 0l0 2.375l-2.875 0l0 5.75l4.375 -1.375l0.5 2.25l-11.5 3.25q-0.125 1.0 -0.625 0.5l-1.0 -2.75l1.5 -0.25l0 -11.625l2.375 0q1.0 0.125 0.125 0.75l0 10.25l1.75 -0.375l0 -13.375l-2.25 0l-2.125 0l0 -9.25l10.0 0zm-2.5 7.25l0 -5.25l-5.0 0l0 5.25l5.0 0z" fill-rule="nonzero"/><path fill="#000000" fill-opacity="0.0" d="m535.6076 268.4147l188.8504 0l0 119.37009l-188.8504 0z" fill-rule="evenodd"/><path stroke="#000000" stroke-width="3.0" stroke-linejoin="round" stroke-linecap="butt" d="m535.6076 268.4147l188.8504 0l0 119.37009l-188.8504 0z" fill-rule="evenodd"/><path fill="#000000" d="m571.7828 327.81973q0.125 -2.875 0.125 -6.5q0 -3.75 -0.125 -6.125l20.625 0q-0.125 2.625 -0.125 6.25q0 3.5 0.125 6.375l-20.625 0zm15.125 0.625q-0.125 2.625 -0.125 6.0l0 5.25q6.875 0 9.5 -0.125l0 2.375q-2.625 -0.125 -4.625 -0.125l-18.625 0q-2.75 0 -5.0 0.125l0 -2.375q2.375 0.125 9.0 0.125l0 -5.125q0 -3.5 -0.125 -6.125l2.75 0q-0.125 2.625 -0.125 6.125l0 5.125l4.75 0l0 -5.25q0 -3.375 -0.125 -6.0l2.75 0zm2.875 -7.875l0 -3.25l-15.375 0l0 3.25l15.375 0zm0 5.0l0 -2.75l-15.375 0l0 2.75l15.375 0zm-20.5 6.125q1.25 -0.5 2.25 -1.375q2.625 4.125 4.0 7.0q-1.375 0.625 -2.375 1.375q-1.125 -2.625 -3.875 -7.0zm25.5 0.25q-0.5 0.5 -1.625 2.5625q-1.125 2.0625 -2.75 4.3125q-0.875 -0.75 -2.125 -1.375q2.75 -3.875 3.875 -7.125q1.25 1.125 2.625 1.625z" fill-rule="nonzero"/><path fill="#000000" d="m621.0328 328.94473q2.5 4.125 6.875 7.25l-2.125 2.375q-4.125 -3.375 -7.0 -8.125l2.25 -1.5zm-5.375 10.375q0 2.25 -2.125 2.25l-3.5 0l-0.5 -2.75l2.75 0q0.5 0 0.5 -0.5l0 -11.75l-12.25 0l0 -2.75l26.875 0l0 2.75l-11.75 0l0 12.75zm-11.0 -20.125l0 -2.75l19.0 0l0 2.75l-19.0 0zm-4.125 17.5q3.5 -2.5 6.125 -7.625l2.5 1.375q1.0 0.625 -0.375 0.875q-2.125 4.5 -6.25 7.75l-2.0 -2.375z" fill-rule="nonzero"/><path fill="#000000" d="m660.7828 338.19473q-0.875 2.875 -1.625 3.6875q-0.75 0.8125 -2.5 0.8125l-9.75 0q-3.375 0.125 -3.5 -3.375l0 -4.375l-7.25 0l0 2.375l-2.875 0q0.125 -1.25 0.125 -8.625q0 -7.375 -0.125 -9.625l10.125 0q0 -3.375 -0.125 -5.25l2.75 0q-0.125 1.625 -0.125 5.25l10.125 0q-0.125 1.875 -0.125 7.75q0 5.75 0.125 8.125l-10.125 0l0 3.375q0 2.25 2.375 2.25l6.625 0q2.0 0 2.375 -0.875q0.375 -0.875 0.625 -2.75q1.25 0.875 2.875 1.25zm-7.375 -5.375l0 -5.0l-7.5 0l0 5.0l7.5 0zm-10.0 0l0 -5.0l-7.25 0l0 5.0l7.25 0zm10.0 -7.0l0 -4.625l-7.5 0l0 4.625l7.5 0zm-10.0 0l0 -4.625l-7.25 0l0 4.625l7.25 0z" fill-rule="nonzero"/><path fill="#000000" d="m687.40784 338.69473l0 -5.625l-6.25 0l0 5.625l6.25 0zm2.5 3.375l-2.5 0l0 -1.375l-6.25 0l0 1.75l-2.5 0l0 -11.375l11.25 0l0 11.0zm-8.875 -23.25q0.625 1.75 3.125 4.5q2.25 -3.0 2.875 -4.5l-6.0 0zm3.125 8.0q-4.375 4.0 -8.125 5.375l-1.125 -2.5q3.5 -1.125 7.625 -4.75q-1.0 -1.0 -2.625 -3.625q-1.25 2.875 -2.5 4.125l-1.875 -1.875q3.0 -4.0 4.625 -10.0l2.625 0.75q0.5 0.5 -0.375 0.625l-0.625 1.5l6.375 0l0.375 -0.625l2.0 1.625q0.5 0.375 -0.5 0.75q-1.75 4.0 -4.125 6.75q4.25 3.25 7.25 4.25l-1.0 2.75q-3.0 -1.0 -8.0 -5.125zm-9.125 -11.25l0 9.25l-3.125 0l0 4.625l2.875 0l0 2.375l-2.875 0l0 5.75l4.375 -1.375l0.5 2.25l-11.5 3.25q-0.125 1.0 -0.625 0.5l-1.0 -2.75l1.5 -0.25l0 -11.625l2.375 0q1.0 0.125 0.125 0.75l0 10.25l1.75 -0.375l0 -13.375l-2.25 0l-2.125 0l0 -9.25l10.0 0zm-2.5 7.25l0 -5.25l-5.0 0l0 5.25l5.0 0z" fill-rule="nonzero"/><path fill="#000000" fill-opacity="0.0" d="m23.601435 268.4147l244.97638 0l0 119.37009l-244.97638 0z" fill-rule="evenodd"/><path stroke="#000000" stroke-width="3.0" stroke-linejoin="round" stroke-linecap="butt" d="m23.601435 268.4147l244.97638 0l0 119.37009l-244.97638 0z" fill-rule="evenodd"/><path fill="#000000" d="m53.308376 339.81973l0 -22.90625l3.03125 0l0 20.203125l11.281246 0l0 2.703125l-14.312496 0zm17.984371 0l0 -22.90625l16.5625 0l0 2.703125l-13.53125 0l0 7.015625l12.671875 0l0 2.6875l-12.671875 0l0 7.796875l14.0625 0l0 2.703125l-17.09375 0zm21.28125 0l0 -22.90625l7.890625 0q2.671875 0 4.078125 0.328125q1.96875 0.453125 3.359375 1.640625q1.8125 1.53125 2.703125 3.921875q0.90625 2.375 0.90625 5.4375q0 2.609375 -0.609375 4.625q-0.609375 2.015625 -1.5625 3.34375q-0.953125 1.3125 -2.09375 2.078125q-1.125 0.75 -2.734375 1.140625q-1.59375 0.390625 -3.671875 0.390625l-8.265625 0zm3.03125 -2.703125l4.890625 0q2.265625 0 3.546875 -0.421875q1.296875 -0.421875 2.0625 -1.1875q1.078125 -1.078125 1.671875 -2.890625q0.609375 -1.828125 0.609375 -4.421875q0 -3.59375 -1.1875 -5.515625q-1.171875 -1.9375 -2.859375 -2.59375q-1.21875 -0.46875 -3.921875 -0.46875l-4.8125 0l0 17.5z" fill-rule="nonzero"/><path fill="#000000" d="m117.71462 320.44473q0.75 0.125 0 0.875q0.25 4.625 -0.625 9.0l-2.375 -0.5q0.75 -3.875 0.625 -9.5l2.375 0.125zm11.125008 15.125l0 1.625l-2.5000076 0l0 -16.25l14.500008 0l0 15.625l-2.5 0l0 -1.0l-9.5 0zm0 -12.25l0 3.75l9.5 0l0 -3.75l-9.5 0zm0 6.125l0 3.75l9.5 0l0 -3.75l-9.5 0zm-4.1250076 -13.875l17.750008 0l0 2.375l-17.750008 0l0 -2.375zm-1.375 23.25l20.375008 0l0 2.375l-20.375008 0l0 -2.375zm-2.0 -24.75q1.0 0.125 0.125 0.75l0 5.625l1.75 -0.875q1.125 1.0 2.375 4.375l-2.25 1.125q-1.375 -3.25 -1.875 -4.0l0 21.75l-2.5 0l0 -28.75l2.375 0z" fill-rule="nonzero"/><path fill="#000000" d="m161.71463 326.19473l0 -3.75q0 -2.0 -0.125 -3.375l2.875 0q-0.25 1.0 -0.25 3.5l0 3.625l4.5 0q2.625 0 3.875 -0.125l0 2.75q-1.25 -0.125 -3.875 -0.125l-4.5 0l0 10.25l5.5 0q3.125 0 4.75 -0.125l0 2.625q-1.625 -0.125 -4.625 -0.125l-12.75 0q-3.25 0 -4.625 0.125l0 -2.625q1.875 0.125 4.625 0.125l4.625 0l0 -10.25l-2.875 0q-3.25 0 -4.375 0.125l0 -2.75q2.0 0.125 4.375 0.125l2.875 0zm8.0 -11.125q2.75 0 4.25 -0.125l0 2.5q-1.25 -0.125 -4.25 -0.125l-17.25 0l0 11.125q0 4.25 -0.9375 7.75q-0.9375 3.5 -2.6875 6.875q-1.0 -1.0 -2.625 -1.625q2.125 -3.125 2.875 -5.9375q0.75 -2.8125 0.875 -6.3125l0 -9.375q-0.125 -2.625 -0.25 -4.75l20.0 0zm-1.375 15.5q2.0 2.625 3.25 4.625q-1.375 0.75 -2.5 1.5q-1.25 -2.625 -2.75 -4.75q1.125 -0.625 2.0 -1.375zm39.625 7.625q-0.875 2.875 -1.625 3.6875q-0.75 0.8125 -2.5 0.8125l-9.75 0q-3.375 0.125 -3.5 -3.375l0 -4.375l-7.25 0l0 2.375l-2.875 0q0.125 -1.25 0.125 -8.625q0 -7.375 -0.125 -9.625l10.125 0q0 -3.375 -0.125 -5.25l2.75 0q-0.125 1.625 -0.125 5.25l10.125 0q-0.125 1.875 -0.125 7.75q0 5.75 0.125 8.125l-10.125 0l0 3.375q0 2.25 2.375 2.25l6.625 0q2.0 0 2.375 -0.875q0.375 -0.875 0.625 -2.75q1.25 0.875 2.875 1.25zm-7.375 -5.375l0 -5.0l-7.5 0l0 5.0l7.5 0zm-10.0 0l0 -5.0l-7.25 0l0 5.0l7.25 0zm10.0 -7.0l0 -4.625l-7.5 0l0 4.625l7.5 0zm-10.0 0l0 -4.625l-7.25 0l0 4.625l7.25 0z" fill-rule="nonzero"/><path fill="#000000" d="m234.58963 338.69473l0 -5.625l-6.25 0l0 5.625l6.25 0zm2.5 3.375l-2.5 0l0 -1.375l-6.25 0l0 1.75l-2.5 0l0 -11.375l11.25 0l0 11.0zm-8.875 -23.25q0.625 1.75 3.125 4.5q2.25 -3.0 2.875 -4.5l-6.0 0zm3.125 8.0q-4.375 4.0 -8.125 5.375l-1.125 -2.5q3.5 -1.125 7.625 -4.75q-1.0 -1.0 -2.625 -3.625q-1.25 2.875 -2.5 4.125l-1.875 -1.875q3.0 -4.0 4.625 -10.0l2.625 0.75q0.5 0.5 -0.375 0.625l-0.625 1.5l6.375 0l0.375 -0.625l2.0 1.625q0.5 0.375 -0.5 0.75q-1.75 4.0 -4.125 6.75q4.25 3.25 7.25 4.25l-1.0 2.75q-3.0 -1.0 -8.0 -5.125zm-9.125 -11.25l0 9.25l-3.125 0l0 4.625l2.875 0l0 2.375l-2.875 0l0 5.75l4.375 -1.375l0.5 2.25l-11.5 3.25q-0.125 1.0 -0.625 0.5l-1.0 -2.75l1.5 -0.25l0 -11.625l2.375 0q1.0 0.125 0.125 0.75l0 10.25l1.75 -0.375l0 -13.375l-2.25 0l-2.125 0l0 -9.25l10.0 0zm-2.5 7.25l0 -5.25l-5.0 0l0 5.25l5.0 0z" fill-rule="nonzero"/><path fill="#000000" fill-opacity="0.0" d="m307.66666 430.9134l188.8504 0l0 119.370056l-188.8504 0z" fill-rule="evenodd"/><path stroke="#000000" stroke-width="3.0" stroke-linejoin="round" stroke-linecap="butt" d="m307.66666 430.9134l188.8504 0l0 119.370056l-188.8504 0z" fill-rule="evenodd"/><path fill="#000000" d="m368.84186 500.69342q-0.875 2.875 -1.625 3.6875q-0.75 0.8125 -2.5 0.8125l-9.75 0q-3.375 0.125 -3.5 -3.375l0 -4.375l-7.25 0l0 2.375l-2.875 0q0.125 -1.25 0.125 -8.625q0 -7.375 -0.125 -9.625l10.125 0q0 -3.375 -0.125 -5.25l2.75 0q-0.125 1.625 -0.125 5.25l10.125 0q-0.125 1.875 -0.125 7.75q0 5.75 0.125 8.125l-10.125 0l0 3.375q0 2.25 2.375 2.25l6.625 0q2.0 0 2.375 -0.875q0.375 -0.875 0.625 -2.75q1.25 0.875 2.875 1.25zm-7.375 -5.375l0 -5.0l-7.5 0l0 5.0l7.5 0zm-10.0 0l0 -5.0l-7.25 0l0 5.0l7.25 0zm10.0 -7.0l0 -4.625l-7.5 0l0 4.625l7.5 0zm-10.0 0l0 -4.625l-7.25 0l0 4.625l7.25 0z" fill-rule="nonzero"/><path fill="#000000" d="m378.09186 494.94342q-1.375 4.375 -3.875 8.875q0.125 1.375 -0.5 0.75l-2.375 -2.25q2.625 -4.0 4.625 -9.125l2.125 1.75zm9.875 3.25q-1.0 2.875 -3.25 5.75l-2.125 -1.75q2.125 -2.625 3.25 -5.875l2.5 1.25q0.5 0.5 -0.375 0.625zm10.625 5.25q-2.75 -2.875 -4.625 -6.0l2.25 -1.375q2.375 3.625 4.25 5.125l-1.875 2.25zm-11.625 -13.125l0 2.625l8.75 0l0 -2.625l-8.75 0zm0 -4.5l0 2.5l8.75 0l0 -2.5l-8.75 0zm3.375 9.5l-2.75 0l-2.75 0l0 -11.875l4.375 0l0.25 -3.25l-7.0 0l0 14.5q0 5.875 -3.5 10.375l-2.0 -2.25q3.0 -3.75 3.0 -9.0l0 -16.0l19.75 0l0 2.375l-7.25 0l-0.875 3.25l6.25 0l0 11.875l-5.0 0l0 7.625q0 2.0 -2.0 2.0l-2.25 0l-0.5 -2.375l1.625 0q0.625 0 0.625 -0.75l0 -6.5zm-16.5 -10.75q2.625 1.25 4.5 3.25l-1.875 2.625q-1.875 -2.125 -4.25 -3.375l1.625 -2.5zm3.5 -1.375q-1.875 -2.0 -4.0 -3.25l1.5 -2.5q2.5 1.125 4.125 3.125l-1.625 2.625z" fill-rule="nonzero"/><path fill="#000000" d="m432.84186 500.69342q-0.875 2.875 -1.625 3.6875q-0.75 0.8125 -2.5 0.8125l-9.75 0q-3.375 0.125 -3.5 -3.375l0 -4.375l-7.25 0l0 2.375l-2.875 0q0.125 -1.25 0.125 -8.625q0 -7.375 -0.125 -9.625l10.125 0q0 -3.375 -0.125 -5.25l2.75 0q-0.125 1.625 -0.125 5.25l10.125 0q-0.125 1.875 -0.125 7.75q0 5.75 0.125 8.125l-10.125 0l0 3.375q0 2.25 2.375 2.25l6.625 0q2.0 0 2.375 -0.875q0.375 -0.875 0.625 -2.75q1.25 0.875 2.875 1.25zm-7.375 -5.375l0 -5.0l-7.5 0l0 5.0l7.5 0zm-10.0 0l0 -5.0l-7.25 0l0 5.0l7.25 0zm10.0 -7.0l0 -4.625l-7.5 0l0 4.625l7.5 0zm-10.0 0l0 -4.625l-7.25 0l0 4.625l7.25 0z" fill-rule="nonzero"/><path fill="#000000" d="m459.46686 501.19342l0 -5.625l-6.25 0l0 5.625l6.25 0zm2.5 3.375l-2.5 0l0 -1.375l-6.25 0l0 1.75l-2.5 0l0 -11.375l11.25 0l0 11.0zm-8.875 -23.25q0.625 1.75 3.125 4.5q2.25 -3.0 2.875 -4.5l-6.0 0zm3.125 8.0q-4.375 4.0 -8.125 5.375l-1.125 -2.5q3.5 -1.125 7.625 -4.75q-1.0 -1.0 -2.625 -3.625q-1.25 2.875 -2.5 4.125l-1.875 -1.875q3.0 -4.0 4.625 -10.0l2.625 0.75q0.5 0.5 -0.375 0.625l-0.625 1.5l6.375 0l0.375 -0.625l2.0 1.625q0.5 0.375 -0.5 0.75q-1.75 4.0 -4.125 6.75q4.25 3.25 7.25 4.25l-1.0 2.75q-3.0 -1.0 -8.0 -5.125zm-9.125 -11.25l0 9.25l-3.125 0l0 4.625l2.875 0l0 2.375l-2.875 0l0 5.75l4.375 -1.375l0.5 2.25l-11.5 3.25q-0.125 1.0 -0.625 0.5l-1.0 -2.75l1.5 -0.25l0 -11.625l2.375 0q1.0 0.125 0.125 0.75l0 10.25l1.75 -0.375l0 -13.375l-2.25 0l-2.125 0l0 -9.25l10.0 0zm-2.5 7.25l0 -5.25l-5.0 0l0 5.25l5.0 0z" fill-rule="nonzero"/><path fill="#000000" fill-opacity="0.0" d="m268.57874 131.26509l39.08661 0" fill-rule="evenodd"/><path stroke="#000000" stroke-width="3.0" stroke-linejoin="round" stroke-linecap="butt" d="m268.57874 131.26509l21.086609 0" fill-rule="evenodd"/><path fill="#000000" stroke="#000000" stroke-width="3.0" stroke-linecap="butt" d="m289.66534 136.22029l13.614288 -4.9552l-13.614288 -4.9552z" fill-rule="evenodd"/><path fill="#000000" fill-opacity="0.0" d="m763.54724 328.09973l-39.08661 0" fill-rule="evenodd"/><path stroke="#000000" stroke-width="3.0" stroke-linejoin="round" stroke-linecap="butt" d="m763.54724 328.09973l-21.086609 0" fill-rule="evenodd"/><path fill="#000000" stroke="#000000" stroke-width="3.0" stroke-linecap="butt" d="m742.46063 323.14453l-13.614319 4.9552l13.614319 4.9552z" fill-rule="evenodd"/><path fill="#000000" fill-opacity="0.0" d="m365.85696 409.65878l0 -4.0698547l72.47244 0l0 4.0698547zm0 -8.13974l0 -8.1397705l72.47244 0l0 8.1397705zm0 -12.209656l0 -44.768707l-36.236237 0l72.47244 -65.1181l72.47244 65.1181l-36.236206 0l0 44.768707z" fill-rule="evenodd"/><path stroke="#000000" stroke-width="3.0" stroke-linejoin="round" stroke-linecap="butt" d="m365.85696 409.65878l0 -4.0698547l72.47244 0l0 4.0698547zm0 -8.13974l0 -8.1397705l72.47244 0l0 8.1397705zm0 -12.209656l0 -44.768707l-36.236237 0l72.47244 -65.1181l72.47244 65.1181l-36.236206 0l0 44.768707z" fill-rule="evenodd"/><path fill="#000000" fill-opacity="0.0" d="m146.08963 268.4147l0 -77.44882" fill-rule="evenodd"/><path stroke="#000000" stroke-width="3.0" stroke-linejoin="round" stroke-linecap="butt" d="m146.08963 268.4147l0 -59.448822" fill-rule="evenodd"/><path fill="#000000" stroke="#000000" stroke-width="3.0" stroke-linecap="butt" d="m151.04483 208.96588l-4.9552 -13.614288l-4.9552 13.614288z" fill-rule="evenodd"/><path fill="#000000" fill-opacity="0.0" d="m857.9724 190.95013l0 77.480316" fill-rule="evenodd"/><path stroke="#000000" stroke-width="3.0" stroke-linejoin="round" stroke-linecap="butt" d="m857.9724 190.95013l0 59.480316" fill-rule="evenodd"/><path fill="#000000" stroke="#000000" stroke-width="3.0" stroke-linecap="butt" d="m853.0173 250.43045l4.955139 13.614288l4.9552 -13.614288z" fill-rule="evenodd"/><path fill="#000000" fill-opacity="0.0" d="m535.6063 71.580055l188.85034 0l0 119.37008l-188.85034 0z" fill-rule="evenodd"/><path stroke="#000000" stroke-width="3.0" stroke-linejoin="round" stroke-linecap="butt" d="m535.6063 71.580055l188.85034 0l0 119.37008l-188.85034 0z" fill-rule="evenodd"/><path fill="#000000" d="m593.4065 125.73509q-0.375 6.25 -3.125 11.875q2.375 3.0 6.125 5.25l-1.625 2.75q-3.5 -2.25 -6.125 -5.625q-3.875 4.375 -7.25 5.875l-1.25 -2.625q4.0 -2.25 6.875 -5.375q-2.25 -3.875 -3.25 -8.375q-1.0 2.125 -2.125 3.625l-1.625 -2.625q3.125 -4.875 4.375 -13.25l2.75 0.375q0.875 0.375 -0.25 0.625q-0.375 2.125 -1.125 5.125l10.5 0l0 2.375l-2.875 0zm-12.0 -0.625l-7.25 0l0 3.625l5.5 0l0 14.25q0 2.125 -2.0 2.125l-3.125 0l-0.375 -2.375l2.625 0q0.375 0 0.375 -0.375l0 -11.25l-3.0 0l0 1.75q0 7.875 -4.625 13.125l-1.75 -2.25q3.875 -4.0 3.875 -10.875l0 -7.75l-4.0 0l0 -2.375l5.125 0l0 -5.75l2.375 0q1.0 0.125 0.125 0.75l0 5.0l6.125 0l0 2.375zm7.125 10.25q1.5 -3.0 2.375 -9.625l-5.5 0q1.125 6.25 3.125 9.625zm11.5 7.0q11.5 -4.0 12.125 -15.375l-11.25 0l0 -2.75l11.5 0l0 -6.625l2.75 0q1.25 0.25 0.125 1.0l0 5.625l12.0 0l0 2.75l-11.75 0q2.625 10.375 12.75 14.75l-1.625 3.0q-8.75 -4.0 -12.375 -13.5q-2.125 10.25 -13.125 14.125l-1.125 -3.0z" fill-rule="nonzero"/><path fill="#000000" d="m660.7815 141.36009q-0.875 2.875 -1.625 3.6875q-0.75 0.8125 -2.5 0.8125l-9.75 0q-3.375 0.125 -3.5 -3.375l0 -4.375l-7.25 0l0 2.375l-2.875 0q0.125 -1.25 0.125 -8.625q0 -7.375 -0.125 -9.625l10.125 0q0 -3.375 -0.125 -5.25l2.75 0q-0.125 1.625 -0.125 5.25l10.125 0q-0.125 1.875 -0.125 7.75q0 5.75 0.125 8.125l-10.125 0l0 3.375q0 2.25 2.375 2.25l6.625 0q2.0 0 2.375 -0.875q0.375 -0.875 0.625 -2.75q1.25 0.875 2.875 1.25zm-7.375 -5.375l0 -5.0l-7.5 0l0 5.0l7.5 0zm-10.0 0l0 -5.0l-7.25 0l0 5.0l7.25 0zm10.0 -7.0l0 -4.625l-7.5 0l0 4.625l7.5 0zm-10.0 0l0 -4.625l-7.25 0l0 4.625l7.25 0z" fill-rule="nonzero"/><path fill="#000000" d="m687.4065 141.86009l0 -5.625l-6.25 0l0 5.625l6.25 0zm2.5 3.375l-2.5 0l0 -1.375l-6.25 0l0 1.75l-2.5 0l0 -11.375l11.25 0l0 11.0zm-8.875 -23.25q0.625 1.75 3.125 4.5q2.25 -3.0 2.875 -4.5l-6.0 0zm3.125 8.0q-4.375 4.0 -8.125 5.375l-1.125 -2.5q3.5 -1.125 7.625 -4.75q-1.0 -1.0 -2.625 -3.625q-1.25 2.875 -2.5 4.125l-1.875 -1.875q3.0 -4.0 4.625 -10.0l2.625 0.75q0.5 0.5 -0.375 0.625l-0.625 1.5l6.375 0l0.375 -0.625l2.0 1.625q0.5 0.375 -0.5 0.75q-1.75 4.0 -4.125 6.75q4.25 3.25 7.25 4.25l-1.0 2.75q-3.0 -1.0 -8.0 -5.125zm-9.125 -11.25l0 9.25l-3.125 0l0 4.625l2.875 0l0 2.375l-2.875 0l0 5.75l4.375 -1.375l0.5 2.25l-11.5 3.25q-0.125 1.0 -0.625 0.5l-1.0 -2.75l1.5 -0.25l0 -11.625l2.375 0q1.0 0.125 0.125 0.75l0 10.25l1.75 -0.375l0 -13.375l-2.25 0l-2.125 0l0 -9.25l10.0 0zm-2.5 7.25l0 -5.25l-5.0 0l0 5.25l5.0 0z" fill-rule="nonzero"/><path fill="#000000" fill-opacity="0.0" d="m498.31497 131.1076l37.29135 0.15748596" fill-rule="evenodd"/><path stroke="#000000" stroke-width="3.0" stroke-linejoin="round" stroke-linecap="butt" d="m498.31497 131.1076l19.291473 0.081466675" fill-rule="evenodd"/><path fill="#000000" stroke="#000000" stroke-width="3.0" stroke-linecap="butt" d="m517.5855 136.14423l13.635132 -4.8976593l-13.593262 -5.012642z" fill-rule="evenodd"/><path fill="#000000" fill-opacity="0.0" d="m724.45667 131.26509l39.08667 0" fill-rule="evenodd"/><path stroke="#000000" stroke-width="3.0" stroke-linejoin="round" stroke-linecap="butt" d="m724.45667 131.26509l21.08667 0" fill-rule="evenodd"/><path fill="#000000" stroke="#000000" stroke-width="3.0" stroke-linecap="butt" d="m745.54333 136.22029l13.614258 -4.9552l-13.614258 -4.9552z" fill-rule="evenodd"/></g></svg>